<?xml version="1.0" standalone="no"?>
<!DOCTYPE svg PUBLIC "-//W3C//DTD SVG 20010904//EN"
 "http://www.w3.org/TR/2001/REC-SVG-20010904/DTD/svg10.dtd">
<svg version="1.0" xmlns="http://www.w3.org/2000/svg"
 width="512.000000pt" height="512.000000pt" viewBox="0 0 512.000000 512.000000"
 preserveAspectRatio="xMidYMid meet">

<g transform="translate(0.000000,512.000000) scale(0.100000,-0.100000)"
fill="#000000" stroke="none">
<path d="M0 2560 l0 -2560 2560 0 2560 0 0 2560 0 2560 -2560 0 -2560 0 0
-2560z m2876 1770 c157 -13 271 -39 368 -84 288 -132 435 -366 453 -718 14
-263 -54 -493 -198 -674 -47 -59 -146 -147 -196 -173 -37 -19 -26 -36 35 -55
365 -114 570 -469 549 -950 -15 -335 -121 -594 -322 -785 -176 -167 -360 -252
-622 -286 -144 -19 -1275 -22 -1382 -4 -74 13 -93 26 -125 84 l-21 40 0 1746
0 1745 25 38 c16 24 43 47 75 62 l50 24 591 0 c325 0 649 -5 720 -10z"/>
<path d="M2176 3644 c-14 -13 -16 -63 -16 -388 0 -324 2 -375 15 -386 21 -18
438 -7 510 13 140 39 210 113 241 256 35 168 0 344 -88 428 -76 73 -171 92
-460 93 -157 0 -189 -3 -202 -16z"/>
<path d="M2171 2196 c-9 -10 -11 -128 -9 -436 l3 -422 38 -35 39 -35 251 4
c285 5 332 14 443 86 110 72 161 175 171 352 11 186 -25 309 -112 389 -101 92
-201 111 -576 111 -190 0 -239 -3 -248 -14z"/>
</g>
</svg>
