<?xml version="1.0" standalone="no"?>
<!DOCTYPE svg PUBLIC "-//W3C//DTD SVG 20010904//EN"
 "http://www.w3.org/TR/2001/REC-SVG-20010904/DTD/svg10.dtd">
<svg version="1.0" xmlns="http://www.w3.org/2000/svg"
 width="512.000000pt" height="512.000000pt" viewBox="0 0 512.000000 512.000000"
 preserveAspectRatio="xMidYMid meet">

<g transform="translate(0.000000,512.000000) scale(0.100000,-0.100000)"
fill="#000000" stroke="none">
<path d="M1560 4334 c-59 -20 -93 -42 -117 -77 l-28 -40 0 -1736 c0 -1864 -3
-1762 48 -1833 38 -51 64 -53 767 -53 675 0 718 2 895 46 106 27 245 95 344
169 260 196 400 482 418 855 13 273 -41 501 -160 675 -82 119 -241 237 -379
282 -38 12 -68 27 -68 34 0 6 24 27 54 47 141 94 259 253 314 427 39 123 47
181 46 350 -1 144 -4 177 -27 262 -63 238 -200 401 -423 504 -99 46 -213 71
-379 84 -137 10 -1275 13 -1305 4z m1083 -684 c140 -20 224 -82 267 -196 42
-111 37 -295 -11 -404 -36 -80 -109 -138 -211 -166 -74 -21 -491 -32 -513 -14
-13 11 -15 63 -15 386 0 325 2 375 16 388 13 13 46 16 207 16 106 0 223 -5
260 -10z m113 -1451 c43 -6 101 -20 131 -30 70 -27 154 -104 181 -167 42 -98
54 -270 27 -397 -30 -140 -86 -215 -206 -275 -98 -50 -166 -60 -422 -60 -249
0 -262 3 -293 61 -19 38 -21 848 -2 867 16 16 474 17 584 1z"/>
</g>
</svg>
